<?xml version="1.0" encoding="utf-8"?>
<!-- Generator: Adobe Illustrator 22.1.0, SVG Export Plug-In . SVG Version: 6.00 Build 0)  -->
<svg version="1.1" id="Warstwa_1" xmlns="http://www.w3.org/2000/svg" xmlns:xlink="http://www.w3.org/1999/xlink" x="0px" y="0px"
	 viewBox="0 0 34 31" style="enable-background:new 0 0 34 31;" xml:space="preserve">
<style type="text/css">
	.st0{fill:#FFFFFF;}
</style>
<title>Group 17</title>
<desc>Created with Sketch.</desc>
<g id="Page-1">
	<path class="st0" d="M33.6,0.3C33.2-0.1,32.7,0,32.4,0c-0.1,0-0.1,0-0.2,0H1.8c-0.1,0-0.1,0-0.2,0C1.3,0,0.8-0.1,0.4,0.3
		C0.2,0.4,0,0.7,0,1.3V22C0,23,0.8,24,1.8,24h8.3c0.2,0,6.1,6.6,6.1,6.6c0,0,0,0,0.1,0.1c0,0,0,0.1,0.1,0.1c0,0,0.1,0.1,0.1,0.1
		c0,0,0.1,0,0.1,0.1C16.7,31,16.9,31,17,31c0,0,0,0,0,0s0,0,0,0c0.1,0,0.3,0,0.4-0.1c0,0,0.1,0,0.1-0.1c0,0,0.1,0,0.1-0.1
		c0,0,0-0.1,0.1-0.1c0,0,0,0,0.1-0.1l5.4-6.6h9c1,0,1.8-1.1,1.8-2.1V1.3C34,0.7,33.8,0.4,33.6,0.3z M32,22C32,22,32,22,32,22
		L22.9,22c-1.1,0-1.6,1.1-1.6,1.1L17,28.4l-4.9-6C11.7,22,10.3,22,10.1,22H2c0,0,0,0,0-0.1V2.1h30V22z"/>
</g>
</svg>
