<?xml version="1.0" encoding="utf-8"?>
<!-- Generator: Adobe Illustrator 22.1.0, SVG Export Plug-In . SVG Version: 6.00 Build 0)  -->
<svg version="1.1" id="Warstwa_1" xmlns="http://www.w3.org/2000/svg" xmlns:xlink="http://www.w3.org/1999/xlink" x="0px" y="0px"
	 viewBox="0 0 252.3 59.5" style="enable-background:new 0 0 252.3 59.5;" xml:space="preserve">
<style type="text/css">
	.st0{fill:#FFFFFF;}
	.st1{fill:none;}
</style>
<g>
	<path class="st0" d="M84.5,22.5c-0.8-0.7-1.6-1.2-2.6-1.6c-1-0.4-2-0.5-2.9-0.5c-0.8,0-1.6,0.1-2.4,0.3c-0.8,0.2-1.5,0.5-2.1,0.9
		c-0.6,0.4-1.1,1-1.5,1.7c-0.4,0.7-0.6,1.5-0.6,2.4c0,0.8,0.1,1.4,0.4,2c0.2,0.5,0.6,1,1,1.4c0.4,0.4,0.9,0.7,1.4,0.9
		c0.5,0.2,1.1,0.4,1.6,0.6c0.6,0.2,1.1,0.3,1.5,0.5c0.4,0.2,0.8,0.3,1.1,0.5c0.3,0.2,0.5,0.4,0.7,0.6c0.2,0.2,0.2,0.5,0.2,0.8
		c0,0.3-0.1,0.6-0.2,0.9c-0.1,0.2-0.3,0.4-0.5,0.6c-0.2,0.1-0.5,0.2-0.8,0.3c-0.3,0.1-0.6,0.1-0.9,0.1c-0.7,0-1.3-0.2-2-0.5
		c-0.7-0.3-1.2-0.8-1.6-1.3l-2.7,2.7c0.8,0.8,1.7,1.4,2.8,1.8c1.1,0.4,2.3,0.6,3.5,0.6c0.8,0,1.6-0.1,2.4-0.3c0.8-0.2,1.5-0.6,2.1-1
		c0.6-0.5,1.1-1.1,1.5-1.8c0.4-0.7,0.5-1.6,0.5-2.5c0-0.8-0.2-1.6-0.5-2.1c-0.3-0.6-0.8-1-1.3-1.4c-0.5-0.4-1.1-0.7-1.7-0.9
		c-0.6-0.2-1.2-0.4-1.8-0.6c-0.4-0.1-0.8-0.3-1.1-0.4c-0.3-0.1-0.6-0.3-0.8-0.4c-0.2-0.1-0.4-0.3-0.5-0.5c-0.1-0.2-0.2-0.4-0.2-0.7
		c0-0.3,0.1-0.6,0.2-0.8c0.2-0.2,0.3-0.4,0.6-0.5c0.2-0.1,0.5-0.2,0.8-0.3c0.3,0,0.6-0.1,0.8-0.1c0.5,0,1.1,0.1,1.6,0.4
		c0.6,0.3,1,0.6,1.4,1.1L84.5,22.5L84.5,22.5z M99.1,24.4v-3.5H85.4v3.5h4.8v13.5h4.1V24.4H99.1L99.1,24.4z M112.9,37.8v-3.5H105
		v-3.5h7.1v-3.3H105v-3.2h7.5v-3.5H101v17H112.9L112.9,37.8z M131.7,37.8l-7.1-17h-4l-7.1,17h4.5l1.2-3.3h6.6l1.3,3.3H131.7
		L131.7,37.8z M124.7,31.2h-4.3l2.2-5.8L124.7,31.2L124.7,31.2z M152.5,37.8v-17h-5.9l-3.7,10.9h-0.1l-3.9-10.9h-5.8v17h3.9l-0.1-12
		h0.1l4.3,12h2.9l4.4-12h0.1l-0.1,12H152.5L152.5,37.8z M168.9,34.5v-3.3h-2.4V20.9h-4.8l-6.9,10.3v3.4h8v3.3h3.8v-3.3H168.9
		L168.9,34.5z M162.9,31.3h-4.1l4-6.3h0.1V31.3L162.9,31.3z M183.9,23.6c-0.3-0.7-0.8-1.2-1.4-1.6c-0.6-0.4-1.3-0.7-2.1-0.9
		c-0.8-0.2-1.7-0.3-2.6-0.3h-6.2v17h4.1v-6.4h2c0.9,0,1.7-0.1,2.5-0.3c0.8-0.2,1.5-0.5,2.2-0.9c0.6-0.4,1.1-1,1.5-1.6
		c0.4-0.7,0.6-1.5,0.6-2.5C184.4,25.1,184.2,24.3,183.9,23.6L183.9,23.6z M180.1,27.1c-0.2,0.3-0.4,0.5-0.7,0.6
		c-0.3,0.2-0.6,0.3-0.9,0.3c-0.4,0.1-0.7,0.1-1.1,0.1h-1.7v-4h1.8c0.4,0,0.7,0,1.1,0.1c0.3,0,0.7,0.1,0.9,0.3
		c0.3,0.1,0.5,0.3,0.6,0.6c0.2,0.3,0.2,0.6,0.2,1C180.3,26.5,180.2,26.8,180.1,27.1L180.1,27.1z M203.9,25.6c-0.5-1.1-1.1-2-1.9-2.8
		c-0.8-0.8-1.8-1.4-2.9-1.8c-1.1-0.4-2.4-0.6-3.7-0.6c-1.3,0-2.6,0.2-3.7,0.6c-1.1,0.4-2.1,1-2.9,1.8c-0.8,0.8-1.5,1.7-1.9,2.8
		c-0.5,1.1-0.7,2.3-0.7,3.7c0,1.3,0.2,2.6,0.7,3.7c0.5,1.1,1.1,2.1,1.9,2.9c0.8,0.8,1.8,1.4,2.9,1.8c1.1,0.4,2.4,0.6,3.7,0.6
		c1.3,0,2.6-0.2,3.7-0.6c1.1-0.4,2.1-1,2.9-1.8c0.8-0.8,1.5-1.7,1.9-2.9c0.5-1.1,0.7-2.3,0.7-3.7C204.6,27.9,204.3,26.7,203.9,25.6
		L203.9,25.6z M199.8,31.4c-0.2,0.6-0.6,1.2-1,1.7c-0.4,0.5-0.9,0.8-1.5,1.1c-0.6,0.3-1.2,0.4-2,0.4s-1.4-0.1-2-0.4
		c-0.6-0.3-1.1-0.6-1.5-1.1c-0.4-0.5-0.8-1-1-1.7c-0.2-0.6-0.4-1.4-0.4-2.1c0-0.7,0.1-1.4,0.3-2.1c0.2-0.6,0.6-1.2,1-1.6
		c0.4-0.5,0.9-0.8,1.5-1.1c0.6-0.3,1.2-0.4,2-0.4s1.4,0.1,2,0.4c0.6,0.3,1.1,0.6,1.5,1.1c0.4,0.5,0.8,1,1,1.6
		c0.2,0.6,0.4,1.3,0.4,2.1C200.2,30,200.1,30.8,199.8,31.4L199.8,31.4z M224.3,25.6c-0.5-1.1-1.1-2-1.9-2.8
		c-0.8-0.8-1.8-1.4-2.9-1.8c-1.1-0.4-2.4-0.6-3.7-0.6c-1.3,0-2.6,0.2-3.7,0.6c-1.1,0.4-2.1,1-2.9,1.8c-0.8,0.8-1.5,1.7-1.9,2.8
		c-0.5,1.1-0.7,2.3-0.7,3.7c0,1.3,0.2,2.6,0.7,3.7c0.5,1.1,1.1,2.1,1.9,2.9c0.8,0.8,1.8,1.4,2.9,1.8c1.1,0.4,2.4,0.6,3.7,0.6
		c1.3,0,2.6-0.2,3.7-0.6c1.1-0.4,2.1-1,2.9-1.8c0.8-0.8,1.5-1.7,1.9-2.9c0.5-1.1,0.7-2.3,0.7-3.7C225,27.9,224.8,26.7,224.3,25.6
		L224.3,25.6z M220.3,31.4c-0.2,0.6-0.6,1.2-1,1.7c-0.4,0.5-0.9,0.8-1.5,1.1c-0.6,0.3-1.2,0.4-2,0.4s-1.4-0.1-2-0.4
		c-0.6-0.3-1.1-0.6-1.5-1.1c-0.4-0.5-0.8-1-1-1.7c-0.2-0.6-0.4-1.4-0.4-2.1c0-0.7,0.1-1.4,0.3-2.1c0.2-0.6,0.6-1.2,1-1.6
		c0.4-0.5,0.9-0.8,1.5-1.1c0.6-0.3,1.2-0.4,2-0.4s1.4,0.1,2,0.4c0.6,0.3,1.1,0.6,1.5,1.1c0.4,0.5,0.8,1,1,1.6
		c0.2,0.6,0.4,1.3,0.4,2.1C220.6,30,220.5,30.8,220.3,31.4L220.3,31.4z M241.6,37.8l-4.4-7.3c1.1-0.3,2-0.9,2.6-1.7
		c0.6-0.8,0.9-1.8,0.9-2.9c0-1-0.2-1.8-0.6-2.4c-0.4-0.7-0.9-1.2-1.5-1.6c-0.6-0.4-1.3-0.7-2.1-0.9c-0.8-0.2-1.6-0.3-2.4-0.3h-6.5
		v17h4v-6.7h1.4l3.7,6.7H241.6L241.6,37.8z M236.4,27.1c-0.2,0.3-0.4,0.5-0.7,0.6s-0.6,0.2-1,0.3c-0.4,0.1-0.7,0.1-1,0.1h-2v-4h2.2
		c0.3,0,0.6,0,1,0.1c0.3,0,0.6,0.1,0.9,0.3c0.3,0.1,0.5,0.3,0.7,0.6c0.2,0.2,0.3,0.6,0.3,1C236.6,26.5,236.6,26.8,236.4,27.1
		L236.4,27.1z"/>
	<g>
		<defs>
			<rect id="SVGID_1_" x="10.1" y="1.8" width="232" height="56"/>
		</defs>
		<clipPath id="SVGID_2_">
			<use xlink:href="#SVGID_1_"  style="overflow:visible;"/>
		</clipPath>
	</g>
	<g>
		<defs>
			<rect id="SVGID_3_" x="10.1" y="1.8" width="232" height="56"/>
		</defs>
		<clipPath id="SVGID_4_">
			<use xlink:href="#SVGID_3_"  style="overflow:visible;"/>
		</clipPath>
	</g>
	<rect x="10.1" y="1.8" class="st1" width="232" height="56"/>
	<g>
		<defs>
			<rect id="SVGID_5_" x="10.1" y="1.8" width="232" height="56"/>
		</defs>
		<clipPath id="SVGID_6_">
			<use xlink:href="#SVGID_5_"  style="overflow:visible;"/>
		</clipPath>
	</g>
	<g>
		<path class="st0" d="M44.1,10.8c0.1-0.1,0.2-0.2,0.3-0.3c0.1-0.1,0.1-0.2,0.1-0.4c0-0.1,0-0.2,0-0.3c0-0.1,0-0.2-0.1-0.2
			c0-0.1-0.1-0.1-0.3-0.1h-0.3h0l0,0.1l-0.4,1.4h0.3C43.9,10.9,44,10.9,44.1,10.8z"/>
		<path class="st0" d="M43.3,14.4c3.5,0,5.1-0.5,8.2-0.5c1,0.1,2,0.4,2.8,0.9C52.2,9.4,48,6.1,43.2,6.1c-4.9,0-9.1,3.3-11.2,8.7
			c0.9-0.6,2-0.9,3.1-1C37.7,13.9,39.8,14.4,43.3,14.4z M42.6,8.4h0.2h1.4c0.3,0,0.5,0,0.7,0.1c0.2,0,0.4,0.1,0.6,0.2
			s0.3,0.2,0.4,0.4C46,9.2,46,9.4,46,9.6c0,0.2,0,0.5-0.1,0.7c-0.1,0.2-0.2,0.4-0.4,0.6c-0.2,0.2-0.4,0.3-0.7,0.4
			c-0.3,0.1-0.6,0.1-1,0.1h-1.3l0.9,0.2l-0.3,1.4h-1.5l0.9-4.2l-0.9-0.3H42.6z"/>
		<path class="st0" d="M48,33.6l0.3,0.1c0,0-0.8,1-1.8,1.2c-0.2,0-0.4,0.1-0.6,0.1c-0.2,0-0.4,0.1-0.6,0.1c-0.2,0-0.4,0-0.6,0.1
			c-0.2,0-0.4,0-0.6,0c-0.2,0-0.4,0-0.6,0c-0.2,0-0.4,0-0.6,0l-0.6,0l-0.6,0c-0.2,0-0.4,0-0.6,0c-0.2,0-0.4,0-0.6-0.1
			c-0.2,0-0.4-0.1-0.6-0.1c-0.2,0-0.4-0.1-0.6-0.1c-0.7-0.1-2-1.2-2-1.2l0.3-0.1c-0.1-0.1-0.6-0.3-0.8,0.2l0.2,0
			c0.1,0,0.2,0,0.3,0.1c0.1,0.2,0.7,1.1,0.7,1.3c0,0.2,0,0.3,0.1,0.5c0.1,0.3,0.1,0.6,0.2,0.9c0.1,0.3,0.2,0.6,0.4,0.9
			c0.2,0.3,0.4,0.6,0.6,0.8c0.2,0.3,0.5,0.5,0.8,0.7c0.3,0.2,0.6,0.4,0.9,0.5c0.3,0.1,0.7,0.2,1,0.3c0.2,0,0.3,0.1,0.5,0.1
			c0.1,0,0.2,0,0.3,0l0.2,0h0c0.3,0,0.7,0,1-0.1c0.3-0.1,0.7-0.1,1-0.3c0.3-0.1,0.6-0.3,0.9-0.5c0.3-0.2,0.5-0.4,0.8-0.7
			c0.5-0.5,0.8-1.1,1-1.7c0.1-0.3,0.2-0.6,0.3-1c0-0.2,0.5-1.5,0.6-1.7c0-0.1,0.1-0.2,0.3-0.1l0.2,0C48.5,33.3,48.1,33.5,48,33.6z
			 M47.4,35c0,0.1,0,0.1-0.1,0.2c-0.1,0.1-0.6,0.9-1.9,1.3c-0.2,0-0.4,0.3-0.2,0.4c0.1,0.2,0.6,0.4,0.8,0.7c0,0-0.1,0.1-0.1,0.1
			c-0.4,0.4-0.9,0.7-1.5,0.9c-0.3,0.1-0.6,0.2-0.8,0.2c-0.3,0-0.6,0.1-0.9,0.1l-0.2,0c-0.1,0-0.1,0-0.2,0c-0.1,0-0.3,0-0.4-0.1
			c-0.3,0-0.6-0.1-0.8-0.2c-0.5-0.2-1-0.5-1.4-0.9c0,0,0-0.1-0.1-0.1c0.2-0.3,0.7-0.6,0.8-0.7c0.1-0.2-0.1-0.4-0.2-0.4
			c-1.1-0.3-1.6-0.9-1.8-1.2c0-0.1-0.1-0.2-0.1-0.3c0,0,0-0.1,0-0.1c0.1,0,0.2,0.1,0.3,0.1c0.2,0.1,0.4,0.1,0.6,0.2
			c0.2,0.1,0.4,0.1,0.6,0.1c0.2,0,0.4,0.1,0.6,0.1c0.2,0,0.4,0,0.6,0.1c0.2,0,0.4,0,0.6,0l0.6,0l0.6,0c0.2,0,0.4,0,0.6,0
			c0.2,0,0.4,0,0.6,0c0.2,0,0.4,0,0.6,0c0.2,0,0.4,0,0.6-0.1c0.2,0,0.4-0.1,0.6-0.1c0.2,0,0.4-0.1,0.6-0.1c0.2-0.1,0.4-0.1,0.6-0.2
			C47.3,34.9,47.4,34.9,47.4,35C47.4,34.9,47.4,34.9,47.4,35z"/>
		<path class="st0" d="M59.1,20l-0.8-0.2c-0.9-2.9-3.6-5-6.8-5c-3.9,0-3.2,0.7-8.3,0.7c-5.1,0-4.3-0.7-8.2-0.7c-3.3,0-6,2.1-6.9,5
			L27.3,20c-1.1,0.2-1.9,1.2-1.9,2.3v6.5c0,1.1,0.8,2.1,1.9,2.3l2.7,0.5c0,0.5,0,1,0,1.7c0,1.6,0,3.8-0.2,6
			c-0.1,0.5-0.1,1.1-0.2,1.6c0,0.3-0.1,0.5-0.1,0.8c0,0.3-0.1,0.5-0.1,0.8c-0.1,0.3-0.1,0.6-0.2,0.9l-0.5-0.2l-1.1,3.5l0.4,0.2
			c0,0,0,0.1-0.1,0.1c-0.1,0.2-0.2,0.4-0.3,0.5c-0.1,0.1-0.1,0.2-0.1,0.2l0,0c-0.1,0.2-0.1,0.5,0.2,0.7c0.2,0.2,0.6,0.1,0.7-0.1
			c0,0,0-0.1,0.1-0.2c0.1-0.1,0.2-0.3,0.3-0.5c0-0.1,0.1-0.1,0.1-0.2l0.4,0.2l1.7-3.3L30.6,44c0.1-0.3,0.2-0.7,0.3-1.1
			c0.1-0.3,0.1-0.5,0.2-0.8c0.1-0.3,0.1-0.5,0.2-0.8c0.1-0.5,0.2-1.1,0.3-1.7c0.3-1.8,0.6-3.6,0.7-5.2c0.3,0.9,0.7,1.9,1.2,2.8
			c2.5,5,5.8,7.8,9.7,7.8h0.1c3.8,0,7.1-2.8,9.6-8c0.3-0.7,0.7-1.5,0.9-2.2c0.1,1.4,0.3,3.1,0.7,4.8c0.1,0.6,0.2,1.1,0.3,1.7
			c0.1,0.3,0.1,0.5,0.2,0.8c0.1,0.3,0.1,0.5,0.2,0.8c0.1,0.4,0.2,0.7,0.3,1.1l-0.6,0.3l1.7,3.3l0.4-0.2c0,0.1,0.1,0.1,0.1,0.2
			c0.1,0.2,0.3,0.4,0.3,0.5c0.1,0.1,0.1,0.2,0.1,0.2c0.1,0.2,0.4,0.3,0.7,0.2c0.2-0.1,0.3-0.4,0.2-0.7l0,0c0,0,0-0.1-0.1-0.2
			c-0.1-0.1-0.2-0.3-0.3-0.5c0,0,0-0.1-0.1-0.1l0.4-0.2l-1.1-3.5l-0.5,0.2c-0.1-0.3-0.1-0.6-0.2-0.9c0-0.2-0.1-0.5-0.1-0.8
			c0-0.3-0.1-0.5-0.1-0.8c-0.1-0.5-0.1-1.1-0.2-1.6c-0.2-2.2-0.2-4.4-0.2-6c0-0.7,0-1.2,0.1-1.7l2.9-0.6c1.1-0.2,1.9-1.2,1.9-2.3
			v-6.5C60.9,21.2,60.2,20.3,59.1,20z M53,20.5c0.6,0,1,0.5,1,1c0,0.6-0.5,1-1,1c-0.6,0-1-0.5-1-1C51.9,20.9,52.4,20.5,53,20.5z
			 M52.2,23.3c0,0.6-0.5,1-1,1c-0.6,0-1-0.5-1-1c0-0.6,0.5-1,1-1C51.7,22.3,52.2,22.7,52.2,23.3z M51.1,18.7c0.6,0,1,0.5,1,1
			s-0.5,1-1,1c-0.6,0-1-0.5-1-1S50.5,18.7,51.1,18.7z M49.3,20.5c0.6,0,1,0.5,1,1c0,0.6-0.5,1-1,1s-1-0.5-1-1
			C48.2,20.9,48.7,20.5,49.3,20.5z M32.2,21.3c0-0.5,0.4-0.8,0.9-0.8h0.2c0.5,0,0.9-0.4,0.9-0.8c0-0.5,0.4-0.8,0.9-0.8h0.3
			c0.5,0,0.9,0.4,0.9,0.8c0,0.5,0.4,0.8,0.9,0.8h0.2c0.5,0,0.9,0.4,0.9,0.8v0.3c0,0.5-0.4,0.8-0.9,0.8h-0.2c-0.5,0-0.9,0.4-0.9,0.8
			v0.2c0,0.5-0.4,0.8-0.9,0.8H35c-0.5,0-0.9-0.4-0.9-0.8v-0.2c0-0.5-0.4-0.8-0.9-0.8h-0.2c-0.5,0-0.9-0.4-0.9-0.8V21.3z M53.7,29.4
			c-0.5,2.4-3.4,14.1-10.4,14.1h0c-7.1-0.2-10-11.4-10.6-14.1c-3-0.8-5.2-3.5-5.2-6.7c0-1,0.3-1.9,0.7-2.8c-0.2,0.5-0.2,1.1-0.3,1.7
			c-0.1,3.8,3.1,7,7,7c3.2,0,6-2.1,6.8-5c0.2-0.6,0.8-1.1,1.5-1.1h0.1c0.7,0,1.3,0.4,1.4,1c0.9,3.1,4,5.4,7.6,5
			c3.2-0.4,6-3.3,6.2-6.4c0-0.6,0-1.2-0.1-1.8c0.3,0.7,0.5,1.5,0.5,2.3C58.9,25.9,56.7,28.6,53.7,29.4z"/>
		<path class="st0" d="M42.8,32.4c1.4,0.3,1.8-0.7,2.3-1c1-0.7,0-2.1-0.2-2.8c-0.2-0.7-0.5-1.7-0.7-2.4c0-0.1-0.2-0.1-0.2,0
			c0.2,1.7,1,4,0.7,4.5c-0.8,1-1.7,0.9-2.1,0.9C41,31.5,41.3,32.1,42.8,32.4z"/>
	</g>
</g>
</svg>
