<?xml version="1.0" encoding="utf-8"?>
<!-- Generator: Adobe Illustrator 22.1.0, SVG Export Plug-In . SVG Version: 6.00 Build 0)  -->
<svg version="1.1" id="Warstwa_1" xmlns="http://www.w3.org/2000/svg" xmlns:xlink="http://www.w3.org/1999/xlink" x="0px" y="0px"
	 viewBox="0 0 25 27" style="enable-background:new 0 0 25 27;" xml:space="preserve">
<style type="text/css">
	.st0{fill:#FFFFFF;}
</style>
<title>Group 4</title>
<desc>Created with Sketch.</desc>
<path class="st0" d="M24.8,25.3L19,18.6c1.9-2,3-4.6,3-7.6c0-6.1-4.9-11-11-11S0,4.9,0,11s4.9,11,11,11c2.4,0,4.6-0.8,6.4-2.1
	l5.8,6.8c0.2,0.2,0.5,0.3,0.8,0.3c0.2,0,0.5-0.1,0.7-0.2C25.1,26.4,25.1,25.8,24.8,25.3z M2,11c0-5,4-9,9-9s9,4,9,9c0,5-4,9-9,9
	S2,16,2,11z"/>
</svg>
