<?xml version="1.0" encoding="utf-8"?>
<!-- Generator: Adobe Illustrator 22.1.0, SVG Export Plug-In . SVG Version: 6.00 Build 0)  -->
<svg version="1.1" id="Warstwa_1" xmlns="http://www.w3.org/2000/svg" xmlns:xlink="http://www.w3.org/1999/xlink" x="0px" y="0px"
	 viewBox="0 0 17 18" style="enable-background:new 0 0 17 18;" xml:space="preserve">
<style type="text/css">
	.st0{fill:#9B9B9B;}
</style>
<title>Group 20</title>
<desc>Created with Sketch.</desc>
<g id="Page-1">
	<g id="Resetowanie-hasła" transform="translate(-1519.000000, -37.000000)">
		<g id="Group" transform="translate(1328.000000, 30.000000)">
			<path class="st0" d="M206.9,23.5l-3.6-4.5c1.2-1.3,1.9-3,1.9-4.8c0-3.9-3.2-7.1-7.1-7.1s-7.1,3.2-7.1,7.1s3.2,7.1,7.1,7.1
				c1.4,0,2.6-0.4,3.7-1.1l3.6,4.5c0.2,0.2,0.5,0.4,0.7,0.4c0.2,0,0.4-0.1,0.6-0.2C207.2,24.5,207.2,23.9,206.9,23.5z M192.9,14.1
				c0-2.9,2.3-5.2,5.2-5.2c2.9,0,5.2,2.3,5.2,5.2c0,2.9-2.3,5.2-5.2,5.2C195.2,19.3,192.9,17,192.9,14.1z"/>
		</g>
	</g>
</g>
</svg>
