<?xml version="1.0" encoding="utf-8"?>
<!-- Generator: Adobe Illustrator 22.1.0, SVG Export Plug-In . SVG Version: 6.00 Build 0)  -->
<svg version="1.1" id="Warstwa_1" xmlns="http://www.w3.org/2000/svg" xmlns:xlink="http://www.w3.org/1999/xlink" x="0px" y="0px"
	 viewBox="0 0 117 140" style="enable-background:new 0 0 117 140;" xml:space="preserve">
<style type="text/css">
	.st0{fill:#FFFFFF;}
</style>
<title>Page 1</title>
<desc>Created with Sketch.</desc>
<g id="Page-1_1_">
	<g id="Resetowanie-hasła" transform="translate(-223.000000, -406.000000)">
		<g id="Page-1" transform="translate(223.000000, 406.000000)">
			<g id="Clip-4">
			</g>
			<g id="Clip-11">
			</g>
		</g>
	</g>
</g>
<g>
	<path class="st0" d="M62.9,15.5c0.3-0.3,0.6-0.7,0.8-1.1c0.2-0.4,0.4-0.8,0.5-1.3c0.1-0.4,0.1-0.8,0.1-1.1c0-0.3-0.1-0.6-0.2-0.8
		c-0.1-0.2-0.5-0.3-1-0.3h-1.1h0L62,11.3L60.5,16h1.1C62.2,16,62.6,15.8,62.9,15.5z"/>
	<path class="st0" d="M60.4,27.5c11.6,0,16.8-1.8,27.2-1.8c3.3,0.2,6.5,1.3,9.2,3C89.7,10.8,75.8,0,59.8,0
		c-16.1,0-30,10.9-37.1,28.8c3-1.9,6.5-3,10.1-3.1C41.9,25.6,48.6,27.5,60.4,27.5z M58,7.5h0.8h4.5c0.9,0,1.7,0.1,2.4,0.2
		c0.7,0.1,1.3,0.4,1.8,0.7s0.9,0.7,1.2,1.2c0.3,0.5,0.4,1.2,0.4,2.1c0,0.8-0.1,1.6-0.4,2.3c-0.3,0.7-0.7,1.3-1.2,1.9
		c-0.6,0.5-1.3,0.9-2.2,1.2c-0.9,0.3-2,0.3-3.2,0.3h-4.4l3,0.6l-0.9,4.6H55l2.9-13.9l-3.1-1.1H58z"/>
	<path class="st0" d="M75.7,90.6l1.1,0.2c0,0-2.6,3.2-6,3.8c-0.7,0.1-1.3,0.3-2,0.4c-0.7,0.1-1.3,0.2-2,0.3c-0.7,0.1-1.3,0.1-2,0.2
		c-0.7,0-1.4,0.1-2,0.1c-0.7,0-1.3,0.1-2,0.1c-0.7,0-1.4,0-2,0l-2,0l-2-0.1c-0.7-0.1-1.4-0.1-2-0.2c-0.7-0.1-1.3-0.1-2-0.2
		c-0.7-0.1-1.3-0.2-2-0.3c-0.7-0.1-1.3-0.3-2-0.4c-2.4-0.3-6.5-4-6.5-4l1.1-0.2c-0.3-0.2-1.9-0.8-2.7,0.6l0.6-0.1
		c0.4-0.1,0.7,0.1,0.9,0.5c0.3,0.8,2.2,3.6,2.2,4.2c0.1,0.5,0.1,1.1,0.2,1.6c0.2,1.1,0.4,2.1,0.8,3.1c0.4,1,0.8,2,1.3,3
		c0.5,1,1.2,1.9,1.9,2.7c0.7,0.9,1.6,1.6,2.5,2.3c0.9,0.7,1.9,1.2,3,1.6c1.1,0.4,2.2,0.7,3.3,0.9c0.6,0.1,1.1,0.2,1.7,0.2
		c0.3,0,0.6,0,0.9,0.1l0.8,0h0c1.1,0,2.3-0.1,3.4-0.3c1.1-0.2,2.2-0.5,3.3-0.9c1.1-0.4,2.1-1,3-1.6c0.9-0.7,1.8-1.4,2.6-2.3
		c1.5-1.7,2.6-3.7,3.4-5.7c0.4-1,0.7-2.1,0.9-3.1c0.1-0.5,1.7-4.9,1.9-5.6c0.1-0.3,0.5-0.5,0.8-0.5l0.7,0.1
		C77.5,89.7,75.9,90.4,75.7,90.6z M73.8,95.2c-0.1,0.2-0.1,0.5-0.2,0.7c-0.2,0.4-2,3-6.3,4.3c-0.6,0.2-1.2,0.9-0.8,1.4
		c0.4,0.5,2.1,1.3,2.7,2.4c-0.1,0.1-0.2,0.2-0.3,0.3c-1.4,1.3-3,2.4-4.8,3.1c-0.9,0.3-1.8,0.6-2.8,0.7c-1,0.2-1.9,0.2-2.9,0.2
		l-0.8,0c-0.2,0-0.5,0-0.7,0c-0.5,0-1-0.1-1.4-0.2c-0.9-0.1-1.9-0.4-2.7-0.7c-1.8-0.6-3.3-1.7-4.7-3.1c-0.1-0.1-0.2-0.2-0.2-0.3
		c0.7-1.1,2.3-1.8,2.7-2.4c0.4-0.5-0.3-1.3-0.8-1.4c-3.6-1.1-5.4-3.1-6.1-3.9c-0.1-0.3-0.2-0.7-0.3-1c0-0.1-0.1-0.2-0.1-0.3
		c0.3,0.1,0.6,0.2,0.8,0.3c0.7,0.2,1.3,0.4,2,0.6c0.7,0.2,1.4,0.3,2,0.4c0.7,0.1,1.4,0.2,2.1,0.3c0.7,0.1,1.4,0.2,2.1,0.2
		s1.4,0.1,2.1,0.2l2.1,0.1l2.1,0c0.7,0,1.4,0,2.1,0c0.7,0,1.4,0,2.1-0.1c0.7,0,1.4-0.1,2.1-0.1c0.7-0.1,1.4-0.1,2.1-0.2
		c0.7-0.1,1.4-0.2,2.1-0.3c0.7-0.1,1.4-0.3,2.1-0.4c0.7-0.2,1.4-0.4,2-0.6c0.2-0.1,0.5-0.2,0.7-0.3C73.9,95,73.8,95.1,73.8,95.2z"/>
	<path class="st0" d="M112.3,45.9l-2.7-0.6C106.7,35.9,97.6,29,87.2,29c-12.9,0-10.6,2.2-27.3,2.2c-16.8,0-14.3-2.2-27-2.2
		C22.2,29,13,35.9,10.3,45.4l-2.7,0.5c-3.7,0.7-6.2,3.9-6.2,7.6v21.6c0,3.7,2.5,6.8,6.2,7.6l8.9,1.8c0.1,1.5,0.1,3.4,0.2,5.7
		c0.1,5.4,0,12.6-0.7,19.8c-0.2,1.8-0.4,3.6-0.6,5.3c-0.1,0.9-0.2,1.7-0.4,2.6c-0.1,0.9-0.3,1.7-0.4,2.5c-0.2,1-0.4,2-0.6,3
		l-1.5-0.6l-3.6,11.4l1.3,0.6c-0.1,0.1-0.1,0.3-0.2,0.4c-0.3,0.7-0.7,1.2-0.8,1.6c-0.2,0.4-0.3,0.5-0.3,0.5l-0.1,0.1
		c-0.4,0.7-0.2,1.7,0.5,2.2c0.8,0.5,1.8,0.3,2.4-0.4c0,0,0.1-0.2,0.4-0.6c0.2-0.4,0.7-0.9,1.1-1.6c0.1-0.2,0.2-0.4,0.4-0.6l1.4,0.6
		l5.6-11l-2.1-0.8c0.4-1.1,0.7-2.3,1.1-3.6c0.2-0.9,0.5-1.7,0.7-2.6c0.2-0.9,0.4-1.8,0.6-2.7c0.4-1.8,0.8-3.6,1.1-5.5
		c1.1-6,1.8-12,2.3-17.1c1.1,3,2.4,6.3,4,9.4c8.2,16.6,19.2,25.6,32,25.6h0.2c12.6,0,23.6-9.2,31.6-26.3c1.2-2.4,2.2-4.9,3.1-7.3
		c0.4,4.8,1.1,10.3,2.2,15.7c0.3,1.8,0.7,3.7,1.1,5.5c0.2,0.9,0.4,1.8,0.6,2.7c0.2,0.9,0.5,1.7,0.7,2.6c0.3,1.2,0.7,2.4,1.1,3.6
		l-2.1,0.8l5.6,10.9l1.4-0.6c0.1,0.2,0.3,0.4,0.4,0.6c0.4,0.7,0.8,1.3,1.1,1.6c0.3,0.4,0.4,0.6,0.4,0.6c0.5,0.7,1.5,0.9,2.2,0.5
		c0.8-0.4,1.1-1.5,0.7-2.3l-0.1-0.1c0,0-0.1-0.2-0.3-0.5c-0.2-0.4-0.5-0.9-0.8-1.6c-0.1-0.1-0.1-0.3-0.2-0.4l1.3-0.6l-3.6-11.4
		l-1.5,0.6c-0.2-1-0.4-1.9-0.6-3c-0.2-0.8-0.3-1.7-0.4-2.5c-0.1-0.9-0.3-1.7-0.4-2.6c-0.2-1.7-0.4-3.5-0.6-5.3
		c-0.7-7.2-0.8-14.4-0.7-19.8c0-2.2,0.1-4.1,0.2-5.6l9.5-1.9c3.7-0.7,6.3-3.9,6.3-7.6V53.5C118.4,49.8,115.9,46.7,112.3,45.9z
		 M92.1,47.5c1.9,0,3.5,1.5,3.5,3.4c0,1.9-1.5,3.4-3.5,3.4c-1.9,0-3.5-1.5-3.5-3.4C88.6,49,90.2,47.5,92.1,47.5z M89.5,56.7
		c0,1.9-1.5,3.4-3.5,3.4c-1.9,0-3.5-1.5-3.5-3.4c0-1.9,1.5-3.4,3.5-3.4C88,53.4,89.5,54.9,89.5,56.7z M86.1,41.6
		c1.9,0,3.5,1.5,3.5,3.4s-1.5,3.4-3.5,3.4c-1.9,0-3.5-1.5-3.5-3.4S84.1,41.6,86.1,41.6z M80,47.5c1.9,0,3.5,1.5,3.5,3.4
		c0,1.9-1.5,3.4-3.5,3.4s-3.5-1.5-3.5-3.4C76.5,49,78.1,47.5,80,47.5z M23.8,50c0-1.5,1.3-2.8,2.9-2.8h0.6c1.6,0,2.9-1.3,2.9-2.8
		s1.3-2.8,2.9-2.8h1.2c1.6,0,2.9,1.3,2.9,2.8s1.3,2.8,2.9,2.8h0.6c1.6,0,2.9,1.3,2.9,2.8v1.1c0,1.5-1.3,2.8-2.9,2.8h-0.6
		c-1.6,0-2.9,1.3-2.9,2.8v0.6c0,1.5-1.3,2.8-2.9,2.8H33c-1.6,0-2.9-1.3-2.9-2.8v-0.6c0-1.5-1.3-2.8-2.9-2.8h-0.6
		c-1.6,0-2.9-1.3-2.9-2.8V50z M94.5,76.7c-1.7,8-11.3,46.4-34.2,46.4h-0.1C36.7,122.6,27,85.6,25.1,76.7C15.1,74.2,7.8,65.2,8,54.6
		c0.1-3.3,0.9-6.4,2.2-9.1c-0.5,1.8-0.8,3.6-0.8,5.6C9.2,63.6,19.7,74,32.6,74c10.7,0,19.7-7.1,22.4-16.6c0.6-2.1,2.5-3.5,4.8-3.5
		h0.2c2.2,0,4.2,1.3,4.8,3.4C67.7,67.6,78,75.2,89.9,73.8c10.5-1.2,19.9-10.9,20.5-21.2c0.1-2-0.1-3.9-0.5-5.8c1,2.4,1.5,5,1.6,7.7
		C111.7,65.2,104.4,74.1,94.5,76.7z"/>
	<path class="st0" d="M58.4,86.8c4.6,0.9,6-2.2,7.5-3.3c3.3-2.5,0.1-6.8-0.6-9.3c-0.8-2.5-1.8-5.7-2.5-8c-0.1-0.4-0.6-0.3-0.6,0.1
		c0.6,5.5,3.3,13.3,2.3,14.7c-2.5,3.3-5.7,3-6.9,2.9C52.8,83.7,53.7,85.9,58.4,86.8z"/>
</g>
</svg>
