<?xml version="1.0" encoding="utf-8"?>
<!-- Generator: Adobe Illustrator 22.1.0, SVG Export Plug-In . SVG Version: 6.00 Build 0)  -->
<svg version="1.1" id="Warstwa_1" xmlns="http://www.w3.org/2000/svg" xmlns:xlink="http://www.w3.org/1999/xlink" x="0px" y="0px"
	 viewBox="0 0 32 33" style="enable-background:new 0 0 32 33;" xml:space="preserve">
<style type="text/css">
	.st0{fill:none;stroke:#FFFFFF;stroke-width:2;}
	.st1{fill:none;stroke:#FFFFFF;stroke-width:2;stroke-linejoin:round;}
</style>
<title>Group 13</title>
<desc>Created with Sketch.</desc>
<g id="Page-1">
	<g id="Desktop-HD-Copy-2" transform="translate(-1812.000000, -33.000000)">
		<g id="Group-13" transform="translate(1813.000000, 34.000000)">
			<path id="Stroke-146" class="st0" d="M20,15c0,2.8-2.2,5-5,5s-5-2.2-5-5s2.2-5,5-5S20,12.2,20,15L20,15z"/>
			<path id="Stroke-148" class="st1" d="M27.4,18.8c0.4-1.2,0.6-2.5,0.6-3.9c0-1.4-0.2-2.7-0.6-3.9l2.3-1.6c0.3-0.2,0.4-0.7,0.2-1
				l-3.5-4.8c-0.2-0.3-0.7-0.4-1.1-0.2L22.9,5c-1.2-0.9-2.6-1.6-4.1-2.1V0.7C18.8,0,18.6,0,18.2,0h-6l-0.9,0.7v2.2
				C9.7,3.4,8.4,4.1,7.1,5.1L4.6,3.3c-0.3-0.2-0.8-0.2-1,0.2L0.1,8.4c-0.2,0.3-0.2,0.8,0.2,1l2.6,1.8c-0.4,1.2-0.6,2.5-0.6,3.8
				c0,1.4,0.2,2.7,0.7,4l-2.4,1.6c-0.3,0.2-0.4,0.7-0.2,1L4,26.4c0.2,0.3,0.7,0.4,1.1,0.2l2.3-1.6c1.2,0.9,2.4,1.6,3.9,2v2.8
				c0,0.4,0.5,1.2,0.9,1.2h6c0.4,0,0.6-0.8,0.6-1.2v-2.8c1.5-0.4,2.9-1.2,4.1-2.1l2.2,1.5c0.3,0.2,0.8,0.2,1.1-0.2l3.5-4.8
				c0.2-0.3,0.2-0.8-0.2-1L27.4,18.8L27.4,18.8z"/>
		</g>
	</g>
</g>
</svg>
